<svg width="150" height="150" viewBox="0 0 150 150" fill="none" xmlns="http://www.w3.org/2000/svg">
<rect width="150" height="150" rx="75" fill="#F2F6FF"/>
<g filter="url(#filter0_b_34_364)">
<path d="M76.1408 47.3411L55.6858 53.1889C48.2317 55.3199 45.1398 61.033 47.137 68.9854L52.6122 90.787C54.6093 98.7394 59.9642 102.038 67.4183 99.9066L87.8734 94.0588C95.3275 91.9277 98.3999 86.2202 96.4027 78.2678L90.9275 56.4662C88.9304 48.5139 83.595 45.21 76.1408 47.3411Z" fill="url(#paint0_linear_34_364)"/>
</g>
<g opacity="0.5" filter="url(#filter1_f_34_364)">
<path d="M86.2199 75.9124L82.5054 60.8997C81.158 55.4542 77.7858 53.0126 73.3519 54.2615L58.3345 58.4913C53.8278 59.7607 52.0827 63.6437 53.4301 69.0892L57.1447 84.1019C58.5137 89.6351 61.8056 92.0036 66.3123 90.7343L81.3297 86.5044C85.7637 85.2555 87.589 81.4456 86.2199 75.9124Z" fill="#11B5E4"/>
</g>
<g filter="url(#filter2_b_34_364)">
<mask id="path-4-outside-1_34_364" maskUnits="userSpaceOnUse" x="59.6611" y="56.626" width="48" height="51" fill="black">
<rect fill="white" x="59.6611" y="56.626" width="48" height="51"/>
<path d="M93.9241 57.626H72.7494C65.0331 57.626 60.6611 62.2906 60.6611 70.5235V93.0942C60.6611 101.327 65.0331 105.992 72.7494 105.992H93.9241C101.64 105.992 105.992 101.327 105.992 93.0942V70.5235C105.992 62.2906 101.64 57.626 93.9241 57.626Z"/>
</mask>
<path d="M93.9241 57.626H72.7494C65.0331 57.626 60.6611 62.2906 60.6611 70.5235V93.0942C60.6611 101.327 65.0331 105.992 72.7494 105.992H93.9241C101.64 105.992 105.992 101.327 105.992 93.0942V70.5235C105.992 62.2906 101.64 57.626 93.9241 57.626Z" fill="#00ACDD"/>
<path d="M93.9241 58.626C94.4763 58.626 94.9241 58.1783 94.9241 57.626C94.9241 57.0737 94.4763 56.626 93.9241 56.626V58.626ZM93.9241 56.626C93.3718 56.626 92.9241 57.0737 92.9241 57.626C92.9241 58.1783 93.3718 58.626 93.9241 58.626V56.626ZM93.9241 56.626H72.7494V58.626H93.9241V56.626ZM72.7494 56.626C68.6868 56.626 65.3727 57.8595 63.082 60.3035C60.8002 62.7381 59.6611 66.2381 59.6611 70.5235H61.6611C61.6611 66.576 62.708 63.6272 64.5413 61.6712C66.3656 59.7248 69.0957 58.626 72.7494 58.626V56.626ZM59.6611 70.5235V93.0942H61.6611V70.5235H59.6611ZM59.6611 93.0942C59.6611 97.3796 60.8002 100.88 63.082 103.314C65.3727 105.758 68.6868 106.992 72.7494 106.992V104.992C69.0957 104.992 66.3656 103.893 64.5413 101.946C62.708 99.9904 61.6611 97.0417 61.6611 93.0942H59.6611ZM72.7494 106.992H93.9241V104.992H72.7494V106.992ZM93.9241 106.992C97.9868 106.992 101.296 105.758 103.582 103.313C105.859 100.878 106.992 97.3784 106.992 93.0942H104.992C104.992 97.0428 103.95 99.9917 102.121 101.947C100.302 103.893 97.5776 104.992 93.9241 104.992V106.992ZM106.992 93.0942V70.5235H104.992V93.0942H106.992ZM106.992 70.5235C106.992 66.2392 105.859 62.7393 103.582 60.3044C101.296 57.8596 97.9868 56.626 93.9241 56.626V58.626C97.5776 58.626 100.302 59.7247 102.121 61.6703C103.95 63.626 104.992 66.5748 104.992 70.5235H106.992Z" fill="url(#paint1_linear_34_364)" mask="url(#path-4-outside-1_34_364)"/>
</g>
<g filter="url(#filter3_bd_34_364)">
<mask id="path-6-inside-2_34_364" fill="white">
<path fill-rule="evenodd" clip-rule="evenodd" d="M83.4062 67.5144C82.3787 67.5144 81.5325 68.4172 81.5325 69.535V94.0833C81.5325 95.1796 82.3787 96.0824 83.4062 96.0824C84.4538 96.0824 85.3 95.1796 85.3 94.0833V69.535C85.3 68.4172 84.4538 67.5144 83.4062 67.5144ZM72.8293 75.4471C71.8017 75.4471 70.9556 76.3499 70.9556 77.4677V94.084C70.9556 95.1803 71.8017 96.0831 72.8293 96.0831C73.8769 96.0831 74.7231 95.1803 74.7231 94.084V77.4677C74.7231 76.3499 73.8769 75.4471 72.8293 75.4471ZM91.9492 86.2378C91.9492 85.1201 92.7954 84.2172 93.8431 84.2172C94.8706 84.2172 95.7168 85.1201 95.7168 86.2378V94.0838C95.7168 95.1801 94.8706 96.083 93.8229 96.083C92.7954 96.083 91.9492 95.1801 91.9492 94.0838V86.2378Z"/>
</mask>
<path fill-rule="evenodd" clip-rule="evenodd" d="M83.4062 67.5144C82.3787 67.5144 81.5325 68.4172 81.5325 69.535V94.0833C81.5325 95.1796 82.3787 96.0824 83.4062 96.0824C84.4538 96.0824 85.3 95.1796 85.3 94.0833V69.535C85.3 68.4172 84.4538 67.5144 83.4062 67.5144ZM72.8293 75.4471C71.8017 75.4471 70.9556 76.3499 70.9556 77.4677V94.084C70.9556 95.1803 71.8017 96.0831 72.8293 96.0831C73.8769 96.0831 74.7231 95.1803 74.7231 94.084V77.4677C74.7231 76.3499 73.8769 75.4471 72.8293 75.4471ZM91.9492 86.2378C91.9492 85.1201 92.7954 84.2172 93.8431 84.2172C94.8706 84.2172 95.7168 85.1201 95.7168 86.2378V94.0838C95.7168 95.1801 94.8706 96.083 93.8229 96.083C92.7954 96.083 91.9492 95.1801 91.9492 94.0838V86.2378Z" fill="url(#paint2_linear_34_364)"/>
<path d="M81.9325 69.535C81.9325 68.6105 82.6263 67.9144 83.4062 67.9144V67.1144C82.1311 67.1144 81.1325 68.224 81.1325 69.535H81.9325ZM81.9325 94.0833V69.535H81.1325V94.0833H81.9325ZM83.4062 95.6824C82.6236 95.6824 81.9325 94.9835 81.9325 94.0833H81.1325C81.1325 95.3757 82.1337 96.4824 83.4062 96.4824V95.6824ZM84.9 94.0833C84.9 94.9806 84.2116 95.6824 83.4062 95.6824V96.4824C84.6961 96.4824 85.7 95.3786 85.7 94.0833H84.9ZM84.9 69.535V94.0833H85.7V69.535H84.9ZM83.4062 67.9144C84.2089 67.9144 84.9 68.6133 84.9 69.535H85.7C85.7 68.2211 84.6988 67.1144 83.4062 67.1144V67.9144ZM71.3556 77.4677C71.3556 76.5432 72.0494 75.8471 72.8293 75.8471V75.0471C71.5541 75.0471 70.5556 76.1567 70.5556 77.4677H71.3556ZM71.3556 94.084V77.4677H70.5556V94.084H71.3556ZM72.8293 95.6831C72.0467 95.6831 71.3556 94.9842 71.3556 94.084H70.5556C70.5556 95.3764 71.5568 96.4831 72.8293 96.4831V95.6831ZM74.3231 94.084C74.3231 94.9813 73.6347 95.6831 72.8293 95.6831V96.4831C74.1191 96.4831 75.1231 95.3793 75.1231 94.084H74.3231ZM74.3231 77.4677V94.084H75.1231V77.4677H74.3231ZM72.8293 75.8471C73.632 75.8471 74.3231 76.546 74.3231 77.4677H75.1231C75.1231 76.1538 74.1218 75.0471 72.8293 75.0471V75.8471ZM93.8431 83.8172C92.5505 83.8172 91.5492 84.924 91.5492 86.2378H92.3492C92.3492 85.3162 93.0403 84.6172 93.8431 84.6172V83.8172ZM96.1168 86.2378C96.1168 84.9268 95.1182 83.8172 93.8431 83.8172V84.6172C94.623 84.6172 95.3168 85.3133 95.3168 86.2378H96.1168ZM96.1168 94.0838V86.2378H95.3168V94.0838H96.1168ZM93.8229 96.483C95.1128 96.483 96.1168 95.3791 96.1168 94.0838H95.3168C95.3168 94.9812 94.6283 95.683 93.8229 95.683V96.483ZM91.5492 94.0838C91.5492 95.3762 92.5505 96.483 93.8229 96.483V95.683C93.0403 95.683 92.3492 94.984 92.3492 94.0838H91.5492ZM91.5492 86.2378V94.0838H92.3492V86.2378H91.5492Z" fill="url(#paint3_linear_34_364)" mask="url(#path-6-inside-2_34_364)"/>
</g>
<defs>
<filter id="filter0_b_34_364" x="33.5435" y="33.7083" width="76.4546" height="79.8315" filterUnits="userSpaceOnUse" color-interpolation-filters="sRGB">
<feFlood flood-opacity="0" result="BackgroundImageFix"/>
<feGaussianBlur in="BackgroundImageFix" stdDeviation="6.5"/>
<feComposite in2="SourceAlpha" operator="in" result="effect1_backgroundBlur_34_364"/>
<feBlend mode="normal" in="SourceGraphic" in2="effect1_backgroundBlur_34_364" result="shape"/>
</filter>
<filter id="filter1_f_34_364" x="39.9863" y="40.9412" width="59.6797" height="63.1279" filterUnits="userSpaceOnUse" color-interpolation-filters="sRGB">
<feFlood flood-opacity="0" result="BackgroundImageFix"/>
<feBlend mode="normal" in="SourceGraphic" in2="BackgroundImageFix" result="shape"/>
<feGaussianBlur stdDeviation="6.5" result="effect1_foregroundBlur_34_364"/>
</filter>
<filter id="filter2_b_34_364" x="44.6611" y="41.626" width="77.3311" height="80.3657" filterUnits="userSpaceOnUse" color-interpolation-filters="sRGB">
<feFlood flood-opacity="0" result="BackgroundImageFix"/>
<feGaussianBlur in="BackgroundImageFix" stdDeviation="7.5"/>
<feComposite in2="SourceAlpha" operator="in" result="effect1_backgroundBlur_34_364"/>
<feBlend mode="normal" in="SourceGraphic" in2="effect1_backgroundBlur_34_364" result="shape"/>
</filter>
<filter id="filter3_bd_34_364" x="55.9556" y="52.5144" width="54.7612" height="58.5688" filterUnits="userSpaceOnUse" color-interpolation-filters="sRGB">
<feFlood flood-opacity="0" result="BackgroundImageFix"/>
<feGaussianBlur in="BackgroundImageFix" stdDeviation="7.5"/>
<feComposite in2="SourceAlpha" operator="in" result="effect1_backgroundBlur_34_364"/>
<feColorMatrix in="SourceAlpha" type="matrix" values="0 0 0 0 0 0 0 0 0 0 0 0 0 0 0 0 0 0 127 0" result="hardAlpha"/>
<feOffset dx="5" dy="5"/>
<feGaussianBlur stdDeviation="5"/>
<feColorMatrix type="matrix" values="0 0 0 0 1 0 0 0 0 0.447059 0 0 0 0 0.368627 0 0 0 0.5 0"/>
<feBlend mode="normal" in2="effect1_backgroundBlur_34_364" result="effect2_dropShadow_34_364"/>
<feBlend mode="normal" in="SourceGraphic" in2="effect2_dropShadow_34_364" result="shape"/>
</filter>
<linearGradient id="paint0_linear_34_364" x1="75.7793" y1="75.8334" x2="40.4737" y2="104.53" gradientUnits="userSpaceOnUse">
<stop stop-color="#11B5E4"/>
<stop offset="1" stop-color="#035B81"/>
</linearGradient>
<linearGradient id="paint1_linear_34_364" x1="67.8771" y1="63.2606" x2="99.0902" y2="99.4933" gradientUnits="userSpaceOnUse">
<stop stop-color="white" stop-opacity="0.25"/>
<stop offset="1" stop-color="white" stop-opacity="0"/>
</linearGradient>
<linearGradient id="paint2_linear_34_364" x1="64.5462" y1="88.7187" x2="77.4094" y2="113.486" gradientUnits="userSpaceOnUse">
<stop stop-color="white"/>
<stop offset="1" stop-color="white" stop-opacity="0.2"/>
</linearGradient>
<linearGradient id="paint3_linear_34_364" x1="74.8971" y1="70.8427" x2="93.4928" y2="90.8043" gradientUnits="userSpaceOnUse">
<stop stop-color="white" stop-opacity="0.25"/>
<stop offset="1" stop-color="white" stop-opacity="0"/>
</linearGradient>
</defs>
</svg>
